<?xml version="1.0" encoding="utf-8"?>
<!-- Generator: Adobe Illustrator 27.6.1, SVG Export Plug-In . SVG Version: 6.00 Build 0)  -->
<svg version="1.1" id="Ebene_1" xmlns="http://www.w3.org/2000/svg" xmlns:xlink="http://www.w3.org/1999/xlink" x="0px" y="0px"
	 viewBox="0 0 24 24" style="enable-background:new 0 0 24 24;" xml:space="preserve">
<style type="text/css">
	.st0{fill-rule:evenodd;clip-rule:evenodd;}
</style>
<path class="st0" d="M17.5,10c0.2,0.2,0.1,0.5-0.1,0.7l-2.2,1.4c-0.1,0.1-0.2,0.1-0.3,0.1c-0.2,0-0.3-0.1-0.4-0.2
	c-0.2-0.2-0.1-0.5,0.1-0.7l2.2-1.4C17.1,9.7,17.4,9.8,17.5,10 M11.3,7.4L12.4,5c0.1-0.3,0.4-0.4,0.7-0.2s0.4,0.4,0.2,0.7l-1.1,2.4
	c-0.1,0.2-0.3,0.3-0.5,0.3l-0.2,0C11.3,8,11.2,7.7,11.3,7.4 M8.7,8C10,5.4,10.1,2.9,9,0.7C8.8,0.4,9,0,9.4,0c0.2,0,0.4,0.1,0.4,0.3
	c1.3,2.5,1.2,5.3-0.3,8.2C9.4,8.7,9.3,8.8,9.1,8.8c-0.1,0-0.2,0-0.2-0.1C8.6,8.6,8.5,8.3,8.7,8 M24,13.6c0,0.4-0.4,0.6-0.7,0.5
	c-2.8-1-5.3-0.8-7.3,0.6c-0.1,0.1-0.2,0.1-0.3,0.1c-0.2,0-0.3-0.1-0.4-0.2c-0.2-0.2-0.1-0.5,0.1-0.7c2.3-1.6,5.1-1.9,8.2-0.7
	C23.9,13.2,24,13.4,24,13.6 M11.3,18.1l-2.2-5.7l5,4.5L11.3,18.1z M0,24l16-6.9L5.7,8C5.7,8,0,24,0,24z M20.5,8.4L21,7.7l0.3,0.8
	l0.8,0.3l-0.7,0.5l0,0.9l-0.7-0.5L19.8,10l0.3-0.8l-0.5-0.7C19.6,8.4,20.5,8.4,20.5,8.4z M19.1,9.3l-0.6,2l2-0.6l1.7,1.2l0.1-2.1
	L24,8.6l-2-0.7l-0.7-2L20,7.5l-2.1,0L19.1,9.3z M16.9,5.1c0.6,0,0.9-0.1,1.1-0.3c0.2-0.2,0.2-0.6,0.2-1.4c0-0.3,0.2-0.5,0.5-0.5
	c0.3,0,0.5,0.2,0.5,0.5c0.1,0.8,0.1,1.6-0.4,2.2C18.3,5.9,17.6,6,17,6c-0.7,0.1-0.7,0.2-0.8,0.9c-0.1,0.7-0.2,1.7-1.8,1.9
	c-1,0.1-1.4,0.3-1.4,2c0,0.3-0.2,0.3-0.5,0.3h0c-0.3,0-0.5,0-0.5-0.3c0-1.5,0.2-2.7,2.3-2.9c0.9-0.1,0.9-0.4,1-1.1
	C15.3,6.2,15.4,5.2,16.9,5.1 M22.2,2C22.6,2,23,2.4,23,2.8s-0.4,0.8-0.8,0.8s-0.8-0.4-0.8-0.8S21.7,2,22.2,2 M22.2,4.7
	c1,0,1.8-0.8,1.8-1.8S23.2,1,22.2,1c-1,0-1.8,0.8-1.8,1.8S21.2,4.7,22.2,4.7 M13.7,1c0.6,0,1,0.4,1,1c0,0.6-0.4,1-1,1s-1-0.4-1-1
	C12.7,1.4,13.2,1,13.7,1 M13.7,4c1.1,0,2-0.9,2-2s-0.9-2-2-2c-1.1,0-2,0.9-2,2S12.6,4,13.7,4"/>
</svg>
